<?xml version="1.0" encoding="UTF-8"?>
<svg xmlns="http://www.w3.org/2000/svg" viewBox="0 0 128 128" width="128" height="128" role="img" aria-label="agent avatar 72">
  <rect width="128" height="128" rx="28" fill="#E3F2FD"/>
  <ellipse cx="64" cy="118" rx="34" ry="14" fill="#8B4513"/>
  <circle cx="64" cy="78" r="36" fill="#FFE0BD"/>
  <ellipse cx="64" cy="52" rx="38" ry="36" fill="#2ecc71"/><path d="M28 58 Q32 28 64 26 Q96 28 100 58 L96 70 Q64 40 32 70 Z" fill="#2ecc71"/>
  <!-- bangs overlay -->
  <path d="M34 58 Q48 42 64 44 Q80 42 94 58 Q78 50 64 52 Q50 50 34 58 Z" fill="#2ecc71" opacity="0.95"/>
  
      <ellipse cx="50" cy="72" rx="8" ry="10" fill="#fff"/><ellipse cx="78" cy="72" rx="8" ry="10" fill="#fff"/>
      <ellipse cx="51" cy="73" rx="3.5" ry="5" fill="#00695c"/><ellipse cx="79" cy="73" rx="3.5" ry="5" fill="#00695c"/>
      <circle cx="52" cy="71" r="1.2" fill="#fff"/><circle cx="80" cy="71" r="1.2" fill="#fff"/>
  
  <ellipse cx="42" cy="84" rx="7" ry="4" fill="#ff8a80" opacity="0.45"/><ellipse cx="86" cy="84" rx="7" ry="4" fill="#ff8a80" opacity="0.45"/>
  
  <ellipse cx="64" cy="94" rx="6" ry="3.5" fill="#e8917a"/>
  <!-- nose tip -->
  <ellipse cx="64" cy="82" rx="1.6" ry="1.1" fill="#e0a090" opacity="0.55"/>
  <!-- highlight -->
  <ellipse cx="48" cy="58" rx="8" ry="5" fill="#c8e6c9" opacity="0.25"/>
</svg>
