<?xml version="1.0" encoding="UTF-8"?>
<svg xmlns="http://www.w3.org/2000/svg" viewBox="0 0 128 128" width="128" height="128" role="img" aria-label="agent avatar 42">
  <rect width="128" height="128" rx="28" fill="#E0F2F1"/>
  <ellipse cx="64" cy="118" rx="34" ry="14" fill="#212121"/>
  <circle cx="64" cy="78" r="36" fill="#E8B898"/>
  <path d="M26 50 Q30 22 64 20 Q98 22 102 50 L104 118 Q90 128 64 126 Q38 128 24 118 Z" fill="#4a3728"/><ellipse cx="64" cy="48" rx="36" ry="32" fill="#4a3728"/>
  <!-- bangs overlay -->
  <path d="M34 58 Q48 42 64 44 Q80 42 94 58 Q78 50 64 52 Q50 50 34 58 Z" fill="#4a3728" opacity="0.95"/>
  
      <path d="M42 72 Q50 62 58 72 Q50 78 42 72 Z" fill="#fff"/><path d="M70 72 Q78 62 86 72 Q78 78 70 72 Z" fill="#fff"/>
      <circle cx="50" cy="72" r="3.8" fill="#2c3e50"/><circle cx="78" cy="72" r="3.8" fill="#2c3e50"/>
      <circle cx="51.2" cy="70.8" r="1.1" fill="#fff"/><circle cx="79.2" cy="70.8" r="1.1" fill="#fff"/>
  
  
  
  <path d="M58 91 Q64 96 70 91" fill="none" stroke="#c47a6a" stroke-width="2" stroke-linecap="round"/><path d="M60 94 Q64 99 68 94" fill="#e8917a"/>
  <!-- nose tip -->
  <ellipse cx="64" cy="82" rx="1.6" ry="1.1" fill="#e0a090" opacity="0.55"/>
  <!-- highlight -->
  <ellipse cx="48" cy="58" rx="8" ry="5" fill="#ffe082" opacity="0.25"/>
</svg>
