<?xml version="1.0" encoding="UTF-8"?>
<svg xmlns="http://www.w3.org/2000/svg" viewBox="0 0 128 128" width="128" height="128" role="img" aria-label="agent avatar 91">
  <rect width="128" height="128" rx="28" fill="#FFEBEE"/>
  <ellipse cx="64" cy="118" rx="34" ry="14" fill="#f39c12"/>
  <circle cx="64" cy="78" r="36" fill="#D4A574"/>
  <ellipse cx="64" cy="52" rx="34" ry="30" fill="#e74c3c"/><path d="M72 40 Q110 30 108 90 Q96 100 84 70 Q78 48 72 42 Z" fill="#e74c3c"/>
  <!-- bangs overlay -->
  <path d="M34 58 Q48 42 64 44 Q80 42 94 58 Q78 50 64 52 Q50 50 34 58 Z" fill="#e74c3c" opacity="0.95"/>
  
      <ellipse cx="50" cy="72" rx="7" ry="9" fill="#fff"/><ellipse cx="78" cy="72" rx="7" ry="9" fill="#fff"/>
      <circle cx="51" cy="73" r="4.2" fill="#37474f"/><circle cx="79" cy="73" r="4.2" fill="#37474f"/>
      <circle cx="52.5" cy="71.5" r="1.4" fill="#fff"/><circle cx="80.5" cy="71.5" r="1.4" fill="#fff"/>
  
  <ellipse cx="42" cy="84" rx="7" ry="4" fill="#ff8a80" opacity="0.45"/><ellipse cx="86" cy="84" rx="7" ry="4" fill="#ff8a80" opacity="0.45"/>
  <circle cx="44" cy="80" r="1" fill="#c47a6a" opacity="0.5"/><circle cx="48" cy="83" r="0.9" fill="#c47a6a" opacity="0.45"/><circle cx="84" cy="80" r="1" fill="#c47a6a" opacity="0.5"/><circle cx="80" cy="83" r="0.9" fill="#c47a6a" opacity="0.45"/>
  <path d="M58 91 Q64 96 70 91" fill="none" stroke="#c47a6a" stroke-width="2" stroke-linecap="round"/><path d="M60 94 Q64 99 68 94" fill="#e8917a"/>
  <!-- nose tip -->
  <ellipse cx="64" cy="82" rx="1.6" ry="1.1" fill="#e0a090" opacity="0.55"/>
  <!-- highlight -->
  <ellipse cx="48" cy="58" rx="8" ry="5" fill="#ffcdd2" opacity="0.25"/>
</svg>
