<?xml version="1.0" encoding="UTF-8"?>
<svg xmlns="http://www.w3.org/2000/svg" viewBox="0 0 128 128" width="128" height="128" role="img" aria-label="agent avatar 57">
  <rect width="128" height="128" rx="28" fill="#F1F8E9"/>
  <ellipse cx="64" cy="118" rx="34" ry="14" fill="#9b59b6"/>
  <circle cx="64" cy="78" r="36" fill="#C68642"/>
  <path d="M28 68 Q26 30 50 24 Q56 10 64 22 Q72 8 78 24 Q102 28 100 68 Q64 42 28 68 Z" fill="#2c1810"/><ellipse cx="64" cy="58" rx="34" ry="28" fill="#2c1810"/>
  <!-- bangs overlay -->
  <path d="M34 58 Q48 42 64 44 Q80 42 94 58 Q78 50 64 52 Q50 50 34 58 Z" fill="#2c1810" opacity="0.95"/>
  
      <ellipse cx="50" cy="72" rx="7" ry="9" fill="#fff"/><ellipse cx="78" cy="72" rx="7" ry="9" fill="#fff"/>
      <circle cx="51" cy="73" r="4.2" fill="#1a237e"/><circle cx="79" cy="73" r="4.2" fill="#1a237e"/>
      <circle cx="52.5" cy="71.5" r="1.4" fill="#fff"/><circle cx="80.5" cy="71.5" r="1.4" fill="#fff"/>
  
  <ellipse cx="42" cy="84" rx="7" ry="4" fill="#ff8a80" opacity="0.45"/><ellipse cx="86" cy="84" rx="7" ry="4" fill="#ff8a80" opacity="0.45"/>
  
  <ellipse cx="64" cy="94" rx="6" ry="3.5" fill="#e8917a"/>
  <!-- nose tip -->
  <ellipse cx="64" cy="82" rx="1.6" ry="1.1" fill="#e0a090" opacity="0.55"/>
  <!-- highlight -->
  <ellipse cx="48" cy="58" rx="8" ry="5" fill="#c8e6c9" opacity="0.25"/>
</svg>
