<?xml version="1.0" encoding="UTF-8"?>
<svg xmlns="http://www.w3.org/2000/svg" viewBox="0 0 128 128" width="128" height="128" role="img" aria-label="agent avatar 40">
  <rect width="128" height="128" rx="28" fill="#E0F7FA"/>
  <ellipse cx="64" cy="118" rx="34" ry="14" fill="#c0392b"/>
  <circle cx="64" cy="78" r="36" fill="#FFCCBC"/>
  <ellipse cx="64" cy="50" rx="34" ry="30" fill="#f39c12"/><path d="M30 55 Q18 70 16 110 Q28 118 36 100 Q40 70 38 58 Z" fill="#f39c12"/><path d="M98 55 Q110 70 112 110 Q100 118 92 100 Q88 70 90 58 Z" fill="#f39c12"/>
  <!-- bangs overlay -->
  <path d="M34 58 Q48 42 64 44 Q80 42 94 58 Q78 50 64 52 Q50 50 34 58 Z" fill="#f39c12" opacity="0.95"/>
  
      <path d="M42 72 Q50 62 58 72 Q50 78 42 72 Z" fill="#fff"/><path d="M70 72 Q78 62 86 72 Q78 78 70 72 Z" fill="#fff"/>
      <circle cx="50" cy="72" r="3.8" fill="#00695c"/><circle cx="78" cy="72" r="3.8" fill="#00695c"/>
      <circle cx="51.2" cy="70.8" r="1.1" fill="#fff"/><circle cx="79.2" cy="70.8" r="1.1" fill="#fff"/>
  
  <ellipse cx="42" cy="84" rx="7" ry="4" fill="#ff8a80" opacity="0.45"/><ellipse cx="86" cy="84" rx="7" ry="4" fill="#ff8a80" opacity="0.45"/>
  
  <ellipse cx="64" cy="94" rx="6" ry="3.5" fill="#e8917a"/>
  <!-- nose tip -->
  <ellipse cx="64" cy="82" rx="1.6" ry="1.1" fill="#e0a090" opacity="0.55"/>
  <!-- highlight -->
  <ellipse cx="48" cy="58" rx="8" ry="5" fill="#d1c4e9" opacity="0.25"/>
</svg>
